<svg width="274" height="93" viewBox="0 0 274 93" fill="none" xmlns="http://www.w3.org/2000/svg">
<path d="M0.650923 23.5909V16.7727L21.7873 8.30682V15.4659L8.32138 20.125L8.54865 19.7841V20.5795L8.32138 20.2386L21.7873 24.8977V32.0568L0.650923 23.5909ZM27.0785 32V10.1818H34.5217V14.3295H34.7489C35.2035 12.9659 35.98 11.8864 37.0785 11.0909C38.177 10.2955 39.4838 9.89773 40.9989 9.89773C42.533 9.89773 43.854 10.3049 44.962 11.1193C46.07 11.9242 46.7376 12.9943 46.9648 14.3295H47.1921C47.5614 12.9943 48.3474 11.9242 49.5501 11.1193C50.7527 10.3049 52.1637 9.89773 53.783 9.89773C55.8758 9.89773 57.5709 10.5701 58.8683 11.9148C60.1751 13.2595 60.8285 15.0492 60.8285 17.2841V32H52.9876V19.2727C52.9876 18.3163 52.7461 17.5682 52.2631 17.0284C51.7802 16.4792 51.1315 16.2045 50.3171 16.2045C49.5122 16.2045 48.873 16.4792 48.3995 17.0284C47.9355 17.5682 47.7035 18.3163 47.7035 19.2727V32H40.2035V19.2727C40.2035 18.3163 39.962 17.5682 39.479 17.0284C38.9961 16.4792 38.3474 16.2045 37.533 16.2045C36.9933 16.2045 36.5292 16.3277 36.141 16.5739C35.7527 16.8201 35.4497 17.1752 35.2319 17.6392C35.0236 18.0937 34.9194 18.6383 34.9194 19.2727V32H27.0785ZM72.5366 2.90909V32H64.6957V2.90909H72.5366ZM84.3725 2.90909V32H76.5316V2.90909H84.3725ZM102.515 22.4545V10.1818H110.356V32H102.913V27.8523H102.686C102.212 29.2443 101.384 30.3333 100.2 31.1193C99.0162 31.8958 97.61 32.2841 95.9812 32.2841C94.4566 32.2841 93.1213 31.9337 91.9755 31.233C90.8391 30.5322 89.9537 29.5663 89.3192 28.3352C88.6942 27.1042 88.377 25.6932 88.3675 24.1023V10.1818H96.2085V22.4545C96.2179 23.5341 96.4925 24.3816 97.0323 24.9972C97.5816 25.6127 98.3486 25.9205 99.3335 25.9205C99.9869 25.9205 100.55 25.7831 101.024 25.5085C101.507 25.2244 101.876 24.8267 102.132 24.3153C102.397 23.7945 102.525 23.1742 102.515 22.4545ZM114.344 32V10.1818H122.185V32H114.344ZM118.265 7.90909C117.204 7.90909 116.295 7.55871 115.537 6.85795C114.78 6.1572 114.401 5.31439 114.401 4.32955C114.401 3.3447 114.78 2.50189 115.537 1.80114C116.295 1.10038 117.204 0.75 118.265 0.75C119.335 0.75 120.244 1.10038 120.992 1.80114C121.749 2.50189 122.128 3.3447 122.128 4.32955C122.128 5.31439 121.749 6.1572 120.992 6.85795C120.244 7.55871 119.335 7.90909 118.265 7.90909ZM126.407 32V27.6818L135.953 16.2614V16.1477H126.748V10.1818H145.214V14.9545L136.521 25.9205V26.0341H145.555V32H126.407Z" fill="#B9C224"/>
<path d="M157.789 32.2841C156.236 32.2841 154.806 31.8769 153.499 31.0625C152.202 30.2481 151.16 29.0123 150.374 27.3551C149.597 25.6979 149.209 23.6098 149.209 21.0909C149.209 18.4583 149.616 16.3182 150.431 14.6705C151.255 13.0227 152.315 11.8153 153.613 11.0483C154.919 10.2812 156.292 9.89773 157.732 9.89773C158.811 9.89773 159.758 10.0871 160.573 10.4659C161.387 10.8352 162.069 11.3324 162.618 11.9574C163.167 12.5729 163.584 13.25 163.868 13.9886H163.982V2.90909H171.823V32H164.039V28.4205H163.868C163.565 29.1591 163.13 29.822 162.561 30.4091C162.003 30.9867 161.321 31.446 160.516 31.7869C159.721 32.1184 158.811 32.2841 157.789 32.2841ZM160.686 26.2614C161.406 26.2614 162.022 26.053 162.533 25.6364C163.054 25.2102 163.452 24.6136 163.726 23.8466C164.01 23.0701 164.152 22.1515 164.152 21.0909C164.152 20.0114 164.01 19.0881 163.726 18.321C163.452 17.5445 163.054 16.9527 162.533 16.5455C162.022 16.1288 161.406 15.9205 160.686 15.9205C159.967 15.9205 159.351 16.1288 158.84 16.5455C158.338 16.9527 157.95 17.5445 157.675 18.321C157.41 19.0881 157.277 20.0114 157.277 21.0909C157.277 22.1705 157.41 23.0985 157.675 23.875C157.95 24.642 158.338 25.2339 158.84 25.6506C159.351 26.0578 159.967 26.2614 160.686 26.2614ZM186.127 32.3977C183.797 32.3977 181.79 31.9527 180.104 31.0625C178.428 30.1629 177.135 28.875 176.226 27.1989C175.327 25.5133 174.877 23.4962 174.877 21.1477C174.877 18.8939 175.331 16.9242 176.24 15.2386C177.15 13.553 178.433 12.2415 180.09 11.304C181.747 10.3665 183.703 9.89773 185.956 9.89773C187.604 9.89773 189.096 10.1534 190.431 10.6648C191.766 11.1761 192.907 11.9195 193.854 12.8949C194.801 13.8608 195.53 15.035 196.042 16.4176C196.553 17.8002 196.809 19.358 196.809 21.0909V22.9091H177.32V18.5909H189.593C189.583 17.9659 189.422 17.4167 189.11 16.9432C188.807 16.4602 188.395 16.0862 187.874 15.821C187.363 15.5464 186.78 15.4091 186.127 15.4091C185.492 15.4091 184.91 15.5464 184.38 15.821C183.849 16.0862 183.423 16.4555 183.101 16.929C182.789 17.4025 182.623 17.9564 182.604 18.5909V23.25C182.604 23.9508 182.751 24.5758 183.044 25.125C183.338 25.6742 183.759 26.1051 184.309 26.4176C184.858 26.7301 185.521 26.8864 186.297 26.8864C186.837 26.8864 187.329 26.8106 187.775 26.6591C188.229 26.5076 188.617 26.2898 188.939 26.0057C189.261 25.7121 189.498 25.3617 189.65 24.9545H196.809C196.562 26.4697 195.98 27.786 195.061 28.9034C194.143 30.0114 192.926 30.8731 191.411 31.4886C189.905 32.0947 188.144 32.3977 186.127 32.3977ZM221.45 10.1818L214.12 32H205.029L197.7 10.1818H205.939L209.461 24.6136H209.689L213.211 10.1818H221.45ZM235.676 1.54545L226.301 36.375H219.653L229.028 1.54545H235.676ZM260.342 23.5909L239.206 32.0568V24.8977L252.672 20.2386L252.444 20.5795V19.7841L252.672 20.125L239.206 15.4659V8.30682L260.342 16.7727V23.5909ZM1.00751 92V45.4545H21.1893C24.7348 45.4545 27.7121 45.9318 30.1211 46.8864C32.5454 47.8409 34.3711 49.1894 35.5984 50.9318C36.8408 52.6742 37.4621 54.7273 37.4621 57.0909C37.4621 58.803 37.0833 60.3636 36.3257 61.7727C35.5833 63.1818 34.5378 64.3636 33.1893 65.3182C31.8408 66.2576 30.2651 66.9091 28.4621 67.2727V67.7273C30.4621 67.803 32.2802 68.3106 33.9166 69.25C35.553 70.1742 36.856 71.4545 37.8257 73.0909C38.7954 74.7121 39.2802 76.6212 39.2802 78.8182C39.2802 81.3636 38.6136 83.6288 37.2802 85.6136C35.9621 87.5985 34.0833 89.1591 31.6439 90.2955C29.2045 91.4318 26.2954 92 22.9166 92H1.00751ZM13.6439 81.9091H19.553C21.6742 81.9091 23.2651 81.5152 24.3257 80.7273C25.3863 79.9242 25.9166 78.7424 25.9166 77.1818C25.9166 76.0909 25.6666 75.1667 25.1666 74.4091C24.6666 73.6515 23.9545 73.0758 23.0302 72.6818C22.1211 72.2879 21.0227 72.0909 19.7348 72.0909H13.6439V81.9091ZM13.6439 64.2727H18.8257C19.9318 64.2727 20.909 64.0985 21.7575 63.75C22.606 63.4015 23.2651 62.9015 23.7348 62.25C24.2196 61.5833 24.4621 60.7727 24.4621 59.8182C24.4621 58.3788 23.9469 57.2803 22.9166 56.5227C21.8863 55.75 20.5833 55.3636 19.0075 55.3636H13.6439V64.2727ZM73.863 45.4545H86.4993V75.2727C86.4993 78.8182 85.6508 81.8864 83.9539 84.4773C82.2721 87.053 79.9236 89.0455 76.9084 90.4545C73.8933 91.8485 70.3933 92.5455 66.4084 92.5455C62.3933 92.5455 58.8781 91.8485 55.863 90.4545C52.8478 89.0455 50.4993 87.053 48.8175 84.4773C47.1508 81.8864 46.3175 78.8182 46.3175 75.2727V45.4545H58.9539V74.1818C58.9539 75.6212 59.2721 76.9091 59.9084 78.0455C60.5448 79.1667 61.4236 80.0455 62.5448 80.6818C63.6811 81.3182 64.969 81.6364 66.4084 81.6364C67.863 81.6364 69.1508 81.3182 70.2721 80.6818C71.3933 80.0455 72.2721 79.1667 72.9084 78.0455C73.5448 76.9091 73.863 75.6212 73.863 74.1818V45.4545ZM95.065 92V45.4545H115.156C118.61 45.4545 121.633 46.0833 124.224 47.3409C126.815 48.5985 128.83 50.4091 130.27 52.7727C131.709 55.1364 132.429 57.9697 132.429 61.2727C132.429 64.6061 131.686 67.4167 130.201 69.7045C128.732 71.9924 126.663 73.7197 123.997 74.8864C121.345 76.053 118.247 76.6364 114.701 76.6364H102.701V66.8182H112.156C113.641 66.8182 114.906 66.6364 115.951 66.2727C117.012 65.8939 117.823 65.2955 118.383 64.4773C118.959 63.6591 119.247 62.5909 119.247 61.2727C119.247 59.9394 118.959 58.8561 118.383 58.0227C117.823 57.1742 117.012 56.553 115.951 56.1591C114.906 55.75 113.641 55.5455 112.156 55.5455H107.701V92H95.065ZM122.338 70.6364L133.974 92H120.247L108.883 70.6364H122.338ZM170.602 60.8182C170.405 60.0152 170.095 59.3106 169.67 58.7045C169.246 58.0833 168.716 57.5606 168.08 57.1364C167.458 56.697 166.731 56.3712 165.898 56.1591C165.08 55.9318 164.178 55.8182 163.193 55.8182C161.072 55.8182 159.261 56.3258 157.761 57.3409C156.277 58.3561 155.14 59.8182 154.352 61.7273C153.58 63.6364 153.193 65.9394 153.193 68.6364C153.193 71.3636 153.564 73.697 154.307 75.6364C155.049 77.5758 156.155 79.0606 157.625 80.0909C159.095 81.1212 160.92 81.6364 163.102 81.6364C165.027 81.6364 166.625 81.3561 167.898 80.7955C169.186 80.2348 170.148 79.4394 170.784 78.4091C171.42 77.3788 171.739 76.1667 171.739 74.7727L173.92 75H163.284V66H183.92V72.4545C183.92 76.697 183.019 80.3258 181.216 83.3409C179.428 86.3409 176.958 88.6439 173.807 90.25C170.67 91.8409 167.072 92.6364 163.011 92.6364C158.481 92.6364 154.504 91.6742 151.08 89.75C147.655 87.8258 144.981 85.0833 143.057 81.5227C141.148 77.9621 140.193 73.7273 140.193 68.8182C140.193 64.9697 140.777 61.5606 141.943 58.5909C143.125 55.6212 144.761 53.1136 146.852 51.0682C148.943 49.0076 151.36 47.4545 154.102 46.4091C156.845 45.3485 159.784 44.8182 162.92 44.8182C165.678 44.8182 168.239 45.2121 170.602 46C172.981 46.7727 175.08 47.8788 176.898 49.3182C178.731 50.7424 180.208 52.4318 181.33 54.3864C182.451 56.3409 183.133 58.4848 183.375 60.8182H170.602ZM192.373 92V45.4545H225.918V55.6364H205.009V63.6364H224.191V73.8182H205.009V81.8182H225.827V92H192.373ZM234.745 92V45.4545H254.836C258.29 45.4545 261.313 46.0833 263.904 47.3409C266.495 48.5985 268.51 50.4091 269.95 52.7727C271.389 55.1364 272.109 57.9697 272.109 61.2727C272.109 64.6061 271.366 67.4167 269.881 69.7045C268.412 71.9924 266.343 73.7197 263.677 74.8864C261.025 76.053 257.927 76.6364 254.381 76.6364H242.381V66.8182H251.836C253.321 66.8182 254.586 66.6364 255.631 66.2727C256.692 65.8939 257.503 65.2955 258.063 64.4773C258.639 63.6591 258.927 62.5909 258.927 61.2727C258.927 59.9394 258.639 58.8561 258.063 58.0227C257.503 57.1742 256.692 56.553 255.631 56.1591C254.586 55.75 253.321 55.5455 251.836 55.5455H247.381V92H234.745ZM262.018 70.6364L273.654 92H259.927L248.563 70.6364H262.018Z" fill="#9758A6"/>
</svg>
